<svg width="14" height="14" fill="none" xmlns="http://www.w3.org/2000/svg"><path fill-rule="evenodd" clip-rule="evenodd" d="M9.26.69c.46.3 1.28 1 2.16 1.89.86.86 1.56 1.66 1.88 2.13.93 1.37.93 3.17.02 4.54-.3.47-1.02 1.29-1.9 2.17-.88.88-1.7 1.6-2.17 1.9a4.06 4.06 0 01-4.54-.03 17.04 17.04 0 01-2.13-1.87C1.7 10.54.99 9.72.68 9.26a4.06 4.06 0 01-.05-4.43c.26-.44 1-1.31 1.95-2.25.94-.95 1.81-1.7 2.25-1.95a4.06 4.06 0 014.43.06z" fill="url(#paint0_radial)"/><path fill-rule="evenodd" clip-rule="evenodd" d="M4 10v-.86h6V10H4zm0-2.57v-.86h6v.86H4zm0-2.57V4h6v.86H4z" fill="#fff"/><defs><radialGradient id="paint0_radial" cx="0" cy="0" r="1" gradientUnits="userSpaceOnUse" gradientTransform="rotate(180 7.05 3.67) scale(14.1967)"><stop offset=".37" stop-color="#FF272C"/><stop offset="1" stop-color="#FF0D2A"/></radialGradient></defs></svg>